<svg width="150" height="191" viewBox="0 0 150 191" fill="none" xmlns="http://www.w3.org/2000/svg">
<path d="M26.0468 191L9.57644 68.4745H5.7804L5.21488 68.2184C1.94954 66.7409 0 64.1141 0 61.1921V60.9C0 57.3702 2.87163 54.4986 6.40146 54.4986L10.1025 54.4652C10.051 51.6027 11.2192 48.738 13.4568 46.619C15.1467 45.0182 17.258 44.0256 19.5023 43.7565C20.0583 42.3432 20.9205 41.0559 22.0349 40.0002C23.9789 38.1595 26.5231 37.1459 29.1993 37.1459C30.9609 37.1459 32.6874 37.5991 34.2118 38.434C34.1051 35.7299 35.064 32.9472 37.097 30.7769C38.6776 29.0899 40.748 27.9666 42.96 27.5605C43.4305 26.1158 44.2145 24.7781 45.2647 23.6571C47.1391 21.6563 49.7526 20.4706 52.4855 20.3693C51.3426 17.9346 51.3706 14.9677 52.8196 12.4201C54.3605 9.71019 57.2232 8.02716 60.29 8.02716C60.7162 8.02716 61.141 8.06054 61.5603 8.12587C63.1115 6.1795 65.5031 5.01134 68.0596 5.01134C69.5225 5.01134 70.9727 5.39641 72.2537 6.12511C73.1404 6.62933 73.9068 7.27198 74.5362 8.01306C75.6995 3.5289 79.7819 0.208008 84.6249 0.208008C89.3036 0.208008 93.2884 3.32916 94.5933 7.59834C99.6476 8.12155 103.607 12.5723 103.607 17.9677C103.607 19.0478 103.447 20.1094 103.14 21.1196C103.887 21.1556 104.627 21.2785 105.348 21.4863C106.239 21.7433 107.08 22.1232 107.853 22.6144C109.558 21.3898 111.602 20.7023 113.683 20.7023C114.588 20.7023 115.49 20.8298 116.363 21.0816C121.668 22.6115 124.688 28.3482 123.096 33.869C122.447 36.119 121.125 38.0441 119.341 39.403C119.346 39.4333 119.35 39.4635 119.355 39.4937C121.095 38.2818 123.172 37.6236 125.307 37.6236C128.344 37.6236 131.221 38.9414 133.203 41.2392C136.258 44.7825 136.497 49.8383 134.116 53.6145C134.303 53.883 134.476 54.1601 134.634 54.4453L143.296 54.4988C146.808 54.4988 149.68 57.3705 149.68 60.9003V61.1924C149.68 64.7225 146.808 67.5942 143.278 67.5942H141.867L123.599 191H26.0468V191Z" fill="#CBCBCB"/>
<path d="M29.4255 185.515H120.161L138.149 64.0012L13.0369 63.6014L29.4255 185.515Z" fill="#B27FB0"/>
<path d="M141.89 57.3344H7.69748C5.78968 57.3344 4.24335 58.881 4.24335 60.7886V61.0749C4.24335 62.9827 5.78997 64.529 7.69748 65.3924H25.8353L38.0773 185.562H53.3248L41.8238 65.3924H66.1988L68.2997 185.653L82.4582 185.563L82.1879 65.1049L109.319 64.5293L95.7995 185.472L110.775 185.563L124.957 64.5293H141.889C143.796 64.5293 145.343 62.9827 145.343 61.0752V60.7888C145.344 58.881 143.797 57.3344 141.89 57.3344Z" fill="#A0467F"/>
<path d="M64.6744 57.8797C64.7674 57.6699 64.873 57.467 64.9861 57.2696H64.7711C64.7464 57.4748 64.7156 57.6788 64.6744 57.8797Z" fill="white"/>
<path d="M75.92 22.0707C75.92 26.1545 79.0518 29.4653 82.9152 29.4653C85.8294 29.4653 88.3263 27.5811 89.3779 24.9026C90.4727 25.6537 91.7776 26.0918 93.18 26.0918C97.0431 26.0918 100.175 22.7809 100.175 18.6971C100.175 14.6133 97.0431 11.3025 93.18 11.3025C92.7005 11.3025 92.232 11.3537 91.7796 11.451C91.752 7.39073 88.453 4.10754 84.3864 4.10754C80.3026 4.10754 76.9917 7.41836 76.9917 11.5022C76.9917 13.2834 77.6217 14.9175 78.671 16.1941C76.9992 17.5453 75.92 19.6745 75.92 22.0707Z" fill="#FDEBA9"/>
<path d="M36.2406 53.9641C35.9108 53.6161 35.5514 53.311 35.1697 53.0494C38.0989 50.2377 38.2144 45.5846 35.4181 42.6318C32.6101 39.6663 27.9296 39.5388 24.9642 42.3471C23.6708 43.572 22.9177 45.1532 22.7119 46.7927C20.5816 46.5081 18.2936 47.1885 16.5539 48.8361C14.1419 51.1203 13.5263 54.5572 14.8101 57.27H37.9435C37.7024 56.0586 37.138 54.9118 36.2406 53.9641Z" fill="#FDEBA9"/>
<path d="M130.168 54.7138C129.854 54.3506 129.51 54.0294 129.141 53.75C132.198 51.0778 132.53 46.435 129.874 43.3553C127.207 40.2624 122.538 39.917 119.445 42.584C118.096 43.7473 117.27 45.2916 116.988 46.9197C114.873 46.5361 112.556 47.1094 110.742 48.6741C109.858 49.4362 109.19 50.3508 108.744 51.3365C108.349 50.278 107.718 49.3355 106.916 48.5702C110.637 49.2986 114.363 47.0742 115.433 43.3622C115.927 41.6507 115.775 39.9061 115.12 38.3888C117.1 37.5539 118.727 35.807 119.391 33.5046C120.523 29.5805 118.432 25.5318 114.72 24.4612C111.919 23.6536 108.998 24.7723 107.245 27.0545C106.402 26.0294 105.269 25.2466 103.922 24.8581C100.21 23.7877 96.2835 26.1008 95.1516 30.0252C94.5233 32.2026 94.8894 34.4181 95.9729 36.1423C94.2597 35.5558 92.3387 35.9026 91.0292 37.212C90.7969 37.4443 90.5949 37.6958 90.4231 37.962C88.4439 36.0096 85.2571 36.0171 83.2877 37.9862C81.3106 39.9634 81.3103 43.1694 83.2877 45.1469C84.1503 46.0094 85.2465 46.4955 86.3726 46.6057C86.2175 48.0689 86.7263 49.6224 87.8864 50.7828C89.8636 52.7602 92.983 52.8469 94.8534 50.9765C94.997 50.8329 95.126 50.6803 95.2466 50.5229C94.7193 51.5406 94.4194 52.6949 94.4194 53.9201C94.4194 55.1271 94.7141 56.2633 95.2276 57.2697H131.537C131.279 56.3496 130.825 55.4768 130.168 54.7138ZM101.814 46.5254C99.3094 46.5254 97.0971 47.7719 95.7597 49.6768C96.3425 48.4255 96.3451 46.9491 95.7732 45.6378C96.6668 45.4718 97.5109 45.0519 98.1898 44.3727C99.6737 42.8885 99.9212 40.6198 98.9744 38.7575C99.2469 38.8781 99.5295 38.9834 99.8231 39.0683C100.284 39.2013 100.748 39.2819 101.21 39.3138C100.445 42.0341 101.309 44.8309 103.221 46.6607C102.765 46.5729 102.295 46.5254 101.814 46.5254Z" fill="#FDEBA9"/>
<path d="M64.641 54.6794C65.0646 55.1186 65.5432 55.5129 66.0748 55.8433C65.652 56.2675 65.2862 56.747 64.9863 57.2705H86.4375C86.9127 56.5072 87.2575 55.645 87.4304 54.707C88.1712 50.6908 85.516 46.8344 81.5001 46.0933C79.7483 45.7701 78.027 46.0933 76.5811 46.8934C75.5559 45.0048 73.6576 43.5569 71.3012 43.1221C67.285 42.3813 63.461 44.8604 62.7602 48.6596C62.6074 49.487 62.6203 50.3078 62.768 51.0949C61.5011 49.7276 59.7867 48.8898 57.9894 48.7704C58.6637 48.3916 59.2966 47.9041 59.8572 47.3055C62.6491 44.3254 62.6273 39.7681 59.8083 37.1267C59.4583 36.7989 59.0813 36.516 58.6847 36.2777C61.4404 33.2958 61.2778 28.6445 58.3097 25.8638C55.3293 23.0716 50.6497 23.2244 47.8575 26.2048C46.6396 27.5048 45.9822 29.128 45.8752 30.777C43.7317 30.6205 41.4883 31.4364 39.8502 33.185C37.058 36.1655 37.0801 40.7227 39.8994 43.3641C41.3009 44.677 43.1296 45.2644 44.9577 45.1617C44.8564 45.1925 44.7554 45.2244 44.6544 45.2598C40.8016 46.6142 38.7761 50.8356 40.1302 54.6883C40.479 55.6804 41.0215 56.5469 41.6949 57.2702H64.7713C64.8732 56.4275 64.8367 55.5523 64.641 54.6794ZM46.7026 44.8529C47.0531 44.7455 47.3985 44.6132 47.7352 44.4531C47.7666 44.5962 47.8043 44.7375 47.8449 44.8785C47.4681 44.8402 47.0865 44.8316 46.7026 44.8529ZM54.0644 49.7362C54.0636 49.7334 54.0621 49.7308 54.0613 49.7279C54.0667 49.7282 54.0719 49.7287 54.0774 49.7287C54.0731 49.7313 54.0685 49.7336 54.0644 49.7362Z" fill="#FDEBA9"/>
<path d="M57.5976 22.2015C58.7319 22.8467 60.0085 23.0234 61.2147 22.7949C61.4489 24.385 62.4007 25.8669 63.9266 26.7346C66.5274 28.2139 69.8089 27.3505 71.2559 24.8061C72.3472 22.887 72.0827 20.5599 70.7707 18.8973C71.6594 18.4483 72.427 17.7478 72.9525 16.824C74.3995 14.2799 73.4642 11.0183 70.8631 9.53902C68.2625 8.06003 64.9811 8.92313 63.534 11.4675C63.3542 11.7835 63.2114 12.1105 63.1041 12.4437C60.5078 10.9912 57.1815 11.9749 55.6582 14.6532C54.1285 17.3429 54.9968 20.7225 57.5976 22.2015Z" fill="#FDEBA9"/>
<path d="M72.9098 31.9332C70.7352 30.795 68.0463 31.6233 66.8917 33.7935C65.7322 35.9727 66.5587 38.6798 68.7382 39.8393C69.6888 40.3449 70.7398 40.473 71.7189 40.2756C71.965 41.5511 72.795 42.7316 74.0737 43.412C76.2529 44.5715 78.9086 43.8405 80.006 41.779C80.8334 40.2238 80.5367 38.3563 79.4063 37.0347C80.118 36.6637 80.7221 36.0919 81.1207 35.3433C82.2175 33.2821 81.34 30.6707 79.1602 29.5108C76.9816 28.3513 74.3252 29.0823 73.2284 31.1438C73.0917 31.3996 72.9864 31.6641 72.9098 31.9332Z" fill="#FDEBA9"/>
</svg>
