<svg width="194" height="194" viewBox="0 0 194 194" fill="none" xmlns="http://www.w3.org/2000/svg">
<path d="M110.755 179.454C156.488 171.858 187.404 128.627 179.808 82.895C172.212 37.1627 128.982 6.24673 83.2494 13.8423C37.5171 21.4378 6.60113 64.6686 14.1967 110.401C21.7922 156.133 65.023 187.049 110.755 179.454Z" fill="#1F140F"/>
<path d="M25.79 71.9301L25.06 73.8501L24.06 73.4801L25.92 68.5801L26.92 68.9501L26.19 70.8701L32.45 73.2501L32 74.3101L25.79 71.9301Z" fill="white"/>
<path d="M27.07 66.1401L27.55 65.1401L34.55 68.4301L34.07 69.4301L27.07 66.1401Z" fill="white"/>
<path d="M29.06 62.0602L31.44 57.9102L32.44 58.4602L30.62 61.6301L32.54 62.7302L34.06 60.0002L34.96 60.5102L33.41 63.2202L35.41 64.3502L37.23 61.1802L38.23 61.7302L35.85 65.8801L29.06 62.0602Z" fill="white"/>
<path d="M33.17 55.2302L33.8 54.3702L40.24 54.8902L35.81 51.6402L36.49 50.7202L42.72 55.3002L42.08 56.1702L35.64 55.6402L40.07 58.9002L39.4 59.8102L33.17 55.2302Z" fill="white"/>
<path d="M38.92 47.7899L40.72 45.8799C41.024 45.5287 41.4201 45.2695 41.8637 45.1317C42.3072 44.9939 42.7805 44.9828 43.23 45.0999C43.5529 45.1635 43.8592 45.2928 44.13 45.4799C44.5612 45.8188 44.975 46.1793 45.37 46.5599C45.8059 46.9473 46.2105 47.3686 46.58 47.8199C46.6777 47.9381 46.7585 48.0693 46.82 48.2099C46.8791 48.3499 46.9292 48.4935 46.97 48.6399C47.0754 49.06 47.0754 49.4997 46.97 49.9199C46.8728 50.4116 46.6328 50.8638 46.28 51.2199L44.54 53.0799L38.92 47.7899ZM44.54 51.4899L45.47 50.4899C45.6741 50.3064 45.824 50.0705 45.9034 49.8078C45.9827 49.5451 45.9885 49.2656 45.92 48.9999C45.8801 48.7741 45.7799 48.5633 45.63 48.3899C45.3154 48.0383 44.9815 47.7045 44.63 47.3899C44.14 46.9299 43.77 46.6099 43.54 46.3899C43.3291 46.2358 43.0801 46.1424 42.82 46.1199C42.5623 46.0807 42.2988 46.1089 42.0552 46.2018C41.8116 46.2947 41.5962 46.4491 41.43 46.6499L40.5 47.6499L44.54 51.4899Z" fill="white"/>
<path d="M51.74 43.73L49.58 45.58L50.27 47.27L49.36 48.05L46.36 40.41L47.08 39.79L54.18 43.89L53.27 44.67L51.74 43.73ZM50.81 43.15L47.81 41.29L49.19 44.57L50.81 43.15Z" fill="white"/>
<path d="M55 33.8802L57.24 32.5202C57.6311 32.2711 58.083 32.1338 58.5466 32.1232C59.0102 32.1126 59.4679 32.2292 59.87 32.4602C60.1652 32.6095 60.4271 32.817 60.64 33.0702C60.8267 33.3236 61.1267 33.7836 61.54 34.4502C61.8366 34.9493 62.1004 35.467 62.33 36.0002C62.386 36.1421 62.4262 36.2896 62.45 36.4402C62.4606 36.59 62.4606 36.7404 62.45 36.8902C62.4459 37.3266 62.3361 37.7555 62.13 38.1402C61.9083 38.5843 61.5604 38.9531 61.13 39.2002L59 40.5002L55 33.8802ZM59.36 39.0002L60.52 38.3002C60.7643 38.1795 60.9713 37.9949 61.1192 37.766C61.2671 37.5372 61.3503 37.2725 61.36 37.0002C61.3853 36.771 61.3473 36.5393 61.25 36.3302C61.1433 36.1036 60.9133 35.6936 60.56 35.1002C60.3176 34.6804 60.0539 34.2732 59.77 33.8802C59.6168 33.6721 59.4041 33.5152 59.16 33.4302C58.9225 33.3176 58.6592 33.2703 58.3974 33.2932C58.1355 33.316 57.8844 33.4082 57.67 33.5602L56.51 34.2602L59.36 39.0002Z" fill="white"/>
<path d="M62.57 29.5498L66.91 27.5498L67.38 28.5498L64.06 30.0798L64.99 32.0798L67.82 30.7798L68.25 31.7198L65.42 32.9998L66.42 35.0598L69.73 33.5298L70.2 34.5298L65.85 36.5298L62.57 29.5498Z" fill="white"/>
<path d="M73.8 25.0001L76.42 24.2701C76.694 24.1912 76.9755 24.1409 77.26 24.1201C77.5819 24.1281 77.8986 24.203 78.19 24.3401C78.4839 24.4594 78.7421 24.6523 78.94 24.9001C79.1855 25.1907 79.3631 25.5323 79.46 25.9001C79.6097 26.457 79.5565 27.0489 79.31 27.5701C79.1692 27.8703 78.9618 28.1344 78.7037 28.3423C78.4455 28.5502 78.1432 28.6966 77.82 28.7701L76.16 29.2401L76.97 32.1501L75.88 32.4501L73.8 25.0001ZM75.86 28.1801L77.48 27.7201C77.6552 27.6832 77.8196 27.6062 77.9601 27.4952C78.1006 27.3842 78.2135 27.2421 78.29 27.0801C78.4167 26.7972 78.4414 26.4792 78.36 26.1801C78.3053 25.9605 78.2029 25.7556 78.06 25.5801C77.9387 25.4492 77.7826 25.3556 77.61 25.3101C77.3364 25.2254 77.0436 25.2254 76.77 25.3101L75.19 25.7501L75.86 28.1801Z" fill="white"/>
<path d="M82.26 26.82C82.1469 26.2259 82.0767 25.6243 82.05 25.02C82.0396 24.7571 82.0838 24.4949 82.18 24.25C82.3192 23.8371 82.5599 23.4657 82.88 23.17C83.2643 22.8122 83.7498 22.5817 84.27 22.51C84.7432 22.4172 85.2331 22.4621 85.6816 22.6393C86.13 22.8166 86.5182 23.1188 86.8 23.51C86.9759 23.7055 87.1057 23.9378 87.18 24.19C87.3296 24.7736 87.4497 25.3644 87.54 25.96C87.6503 26.5482 87.7237 27.1427 87.76 27.74C87.7761 28.0065 87.7316 28.2732 87.63 28.52C87.5054 28.869 87.3098 29.1884 87.0555 29.4579C86.8013 29.7275 86.4939 29.9414 86.1527 30.0861C85.8116 30.2308 85.4442 30.3032 85.0736 30.2987C84.7031 30.2942 84.3375 30.213 84 30.06C83.6052 29.8856 83.2611 29.6138 83 29.27L82.8 28.97C82.7302 28.8427 82.6732 28.7087 82.63 28.57C82.471 27.9948 82.3475 27.4104 82.26 26.82V26.82ZM83.38 26.63C83.4552 27.1437 83.5654 27.6515 83.71 28.15C83.7876 28.3792 83.9259 28.5831 84.11 28.74C84.2601 28.8833 84.4416 28.9895 84.64 29.0501C84.8662 29.1368 85.1124 29.1577 85.35 29.11C85.5962 29.0783 85.8284 28.9778 86.02 28.82C86.1805 28.7022 86.3107 28.548 86.4 28.3701C86.5251 28.158 86.5907 27.9162 86.59 27.67C86.5736 27.1564 86.5168 26.6448 86.42 26.14C86.3535 25.6216 86.2431 25.1098 86.09 24.61C86.006 24.3841 85.8688 24.1817 85.69 24.02C85.5434 23.8825 85.3697 23.7769 85.18 23.71C84.9438 23.6372 84.6939 23.6201 84.45 23.66C84.2154 23.6987 83.9929 23.7911 83.8 23.93C83.6242 24.0675 83.4804 24.2416 83.3785 24.4402C83.2767 24.6387 83.2192 24.8571 83.21 25.08C83.2256 25.6004 83.2825 26.1187 83.38 26.63V26.63Z" fill="white"/>
<path d="M95.68 27.0601C95.5984 27.7049 95.3026 28.3036 94.84 28.7601C94.3807 29.1685 93.7941 29.4053 93.18 29.4301C92.7005 29.4582 92.2223 29.3559 91.7962 29.134C91.3701 28.9122 91.012 28.5791 90.76 28.1701L90.59 27.8501C90.5341 27.7186 90.4939 27.581 90.47 27.4401C90.3689 26.8483 90.3088 26.2502 90.29 25.6501C90.2527 25.0507 90.2527 24.4496 90.29 23.8501C90.3157 23.5898 90.3868 23.336 90.5 23.1001C90.6859 22.7037 90.9677 22.36 91.32 22.1001C91.7362 21.7779 92.2439 21.5958 92.77 21.5801C93.0921 21.5506 93.4169 21.5848 93.7258 21.6809C94.0347 21.777 94.3215 21.933 94.57 22.1401C95.0663 22.5399 95.4176 23.0914 95.57 23.7101L94.37 23.7801C94.2636 23.4792 94.0726 23.2153 93.82 23.0201C93.5491 22.8197 93.2165 22.7206 92.88 22.7401C92.6402 22.7568 92.4075 22.8287 92.2 22.9501C92.0207 23.055 91.867 23.1985 91.75 23.3701C91.607 23.5626 91.5204 23.7912 91.5 24.0301C91.4578 24.5493 91.4578 25.071 91.5 25.5901C91.5127 26.1074 91.5695 26.6226 91.67 27.1301C91.7154 27.371 91.8301 27.5934 92 27.7701C92.1348 27.9248 92.3021 28.0478 92.49 28.1301C92.7072 28.2363 92.9492 28.2812 93.19 28.2601C93.5085 28.2407 93.8126 28.1208 94.0587 27.9178C94.3048 27.7148 94.4803 27.4391 94.56 27.1301L95.68 27.0601Z" fill="white"/>
<path d="M102.13 26.05L99.13 25.9L99 29.27H97.87L98.27 21.54L99.4 21.6L99.23 24.91L102.23 25.07L102.4 21.76H103.53L103.13 29.49L102 29.43L102.13 26.05Z" fill="white"/>
<path d="M106.31 25.94C106.391 25.3411 106.518 24.7494 106.69 24.17C106.768 23.9206 106.89 23.687 107.05 23.48C107.315 23.1401 107.658 22.8691 108.05 22.69C108.527 22.4664 109.063 22.3998 109.58 22.5C110.103 22.5798 110.59 22.8129 110.98 23.17C111.295 23.4665 111.529 23.8382 111.66 24.25C111.757 24.4949 111.804 24.7566 111.8 25.02C111.8 25.33 111.71 25.93 111.57 26.82C111.43 27.71 111.3 28.27 111.21 28.57C111.132 28.8264 111.002 29.0645 110.83 29.27C110.539 29.654 110.149 29.9505 109.701 30.1269C109.252 30.3033 108.764 30.3528 108.29 30.27C107.77 30.1933 107.287 29.9555 106.91 29.59C106.586 29.3 106.341 28.9316 106.2 28.52L106.11 28.17C106.098 28.0269 106.098 27.8831 106.11 27.74C106.137 27.1362 106.204 26.5349 106.31 25.94V25.94ZM107.43 26.13C107.333 26.6347 107.276 27.1463 107.26 27.66C107.252 27.9058 107.314 28.1488 107.44 28.36C107.543 28.5404 107.683 28.6971 107.85 28.82C108.036 28.9721 108.261 29.0691 108.5 29.1C108.719 29.1422 108.945 29.1316 109.159 29.069C109.373 29.0064 109.568 28.8936 109.73 28.74C109.919 28.5816 110.061 28.3739 110.14 28.14C110.284 27.6446 110.394 27.1401 110.47 26.63C110.564 26.1178 110.624 25.6 110.65 25.08C110.648 24.8392 110.578 24.6037 110.45 24.4C110.365 24.2139 110.234 24.0523 110.07 23.93C109.873 23.7835 109.643 23.6874 109.4 23.65C109.179 23.6114 108.952 23.6248 108.736 23.689C108.521 23.7532 108.324 23.8665 108.16 24.02C107.979 24.1741 107.845 24.3747 107.77 24.6C107.617 25.1004 107.503 25.6119 107.43 26.13V26.13Z" fill="white"/>
<path d="M119 30.4798C118.713 31.0651 118.237 31.537 117.65 31.8198C117.086 32.0585 116.457 32.0939 115.87 31.9198C115.363 31.7861 114.909 31.4998 114.57 31.0998C114.276 30.7751 114.072 30.3784 113.98 29.9498L113.92 29.5898C113.911 29.45 113.911 29.3096 113.92 29.1698C114.018 28.5782 114.155 27.9936 114.33 27.4198C114.472 26.8329 114.659 26.2579 114.89 25.6998C114.993 25.4598 115.143 25.2423 115.33 25.0598C115.628 24.7405 116.004 24.503 116.42 24.3698C116.92 24.2036 117.46 24.2036 117.96 24.3698C118.594 24.5292 119.142 24.9267 119.49 25.4798C119.809 26.0189 119.946 26.6467 119.88 27.2698L118.72 26.9498C118.72 26.6298 118.626 26.3168 118.45 26.0498C118.254 25.7737 117.967 25.5755 117.64 25.4898C117.41 25.4357 117.17 25.4357 116.94 25.4898C116.734 25.5351 116.539 25.6237 116.37 25.7498C116.173 25.8843 116.017 26.0713 115.92 26.2898C115.715 26.7692 115.547 27.2641 115.42 27.7698C115.27 28.2636 115.16 28.7685 115.09 29.2798C115.056 29.5221 115.094 29.7692 115.2 29.9898C115.293 30.1983 115.43 30.3835 115.603 30.5323C115.776 30.681 115.98 30.7895 116.2 30.8498C116.509 30.928 116.834 30.9084 117.132 30.7938C117.429 30.6791 117.684 30.4751 117.86 30.2098L119 30.4798Z" fill="white"/>
<path d="M123.15 26.0498L124.21 26.4598L121.79 32.6298L125.19 33.9698L124.79 34.9698L120.33 33.2298L123.15 26.0498Z" fill="white"/>
<path d="M128.45 32.4101C128.717 31.8687 129.018 31.3443 129.35 30.8401C129.502 30.6242 129.696 30.4407 129.92 30.3001C130.28 30.0547 130.696 29.9035 131.13 29.8601C131.652 29.7981 132.181 29.9031 132.64 30.1601C133.114 30.3942 133.505 30.7676 133.76 31.2301C133.967 31.6106 134.073 32.0372 134.07 32.4701C134.093 32.7351 134.055 33.0019 133.96 33.2501C133.738 33.8092 133.481 34.3536 133.19 34.8801C132.927 35.4156 132.63 35.9333 132.3 36.4301C132.152 36.6529 131.958 36.8406 131.73 36.9801C131.333 37.249 130.87 37.405 130.391 37.4314C129.912 37.4578 129.434 37.3537 129.01 37.1301C128.54 36.8897 128.153 36.5134 127.9 36.0501C127.688 35.671 127.574 35.2446 127.57 34.8101C127.57 34.6801 127.57 34.5601 127.57 34.4401C127.59 34.3006 127.623 34.1632 127.67 34.0301C127.893 33.4729 128.153 32.9317 128.45 32.4101V32.4101ZM129.45 32.9301C129.194 33.381 128.977 33.8527 128.8 34.3401C128.737 34.5726 128.737 34.8177 128.8 35.0501C128.833 35.2568 128.915 35.4524 129.04 35.6201C129.178 35.8206 129.364 35.9838 129.58 36.0955C129.796 36.2071 130.037 36.2637 130.28 36.2601C130.481 36.2645 130.68 36.2199 130.86 36.1301C131.086 36.0365 131.282 35.8847 131.43 35.6901C131.724 35.2643 131.985 34.8163 132.21 34.3501C132.464 33.8966 132.684 33.4254 132.87 32.9401C132.976 32.505 132.908 32.0458 132.68 31.6601C132.532 31.466 132.345 31.3058 132.13 31.1901C131.918 31.0755 131.681 31.017 131.44 31.0201C131.233 31.0208 131.029 31.0651 130.84 31.1501C130.616 31.2414 130.422 31.3938 130.28 31.5901C129.967 32.0114 129.693 32.4598 129.46 32.9301H129.45Z" fill="white"/>
<path d="M134.77 38.1498C134.974 38.9103 135.451 39.5689 136.11 39.9998C136.93 40.5298 137.54 40.5098 137.94 39.9298C138.019 39.8226 138.075 39.7007 138.107 39.5714C138.138 39.442 138.143 39.3077 138.121 39.1764C138.1 39.0451 138.052 38.9194 137.982 38.8066C137.911 38.6939 137.819 38.5964 137.71 38.5198L136.96 37.8498C136.535 37.4795 136.249 36.9749 136.15 36.4198C136.079 35.8973 136.212 35.3676 136.52 34.9398C136.679 34.6814 136.89 34.459 137.14 34.2868C137.389 34.1146 137.672 33.9964 137.97 33.9398C138.623 33.8522 139.283 34.0246 139.81 34.4198C140.53 34.9052 141.079 35.6049 141.38 36.4198L140.32 36.8698C140.073 36.2537 139.653 35.7223 139.11 35.3398C138.853 35.1588 138.544 35.0674 138.23 35.0798C138.07 35.0929 137.916 35.1443 137.78 35.2296C137.645 35.3149 137.531 35.4315 137.45 35.5698C137.329 35.7634 137.286 35.9957 137.33 36.2198C137.39 36.5167 137.548 36.7846 137.78 36.9798C137.93 37.1298 138.14 37.3198 138.42 37.5498C138.888 37.9298 139.195 38.4727 139.28 39.0698C139.323 39.59 139.185 40.1092 138.89 40.5398C138.03 41.7498 136.89 41.8898 135.45 40.9498C134.562 40.3828 133.922 39.5 133.66 38.4798L134.77 38.1498Z" fill="white"/>
<path d="M49.14 151.38C49.2454 152.182 49.6401 152.918 50.25 153.45C51.01 154.11 51.64 154.18 52.14 153.64C52.2415 153.546 52.3225 153.432 52.3779 153.306C52.4333 153.179 52.4619 153.043 52.4619 152.905C52.4619 152.767 52.4333 152.63 52.3779 152.504C52.3225 152.377 52.2415 152.263 52.14 152.17L51.48 151.37C51.0939 150.928 50.8715 150.366 50.85 149.78C50.8617 149.237 51.0715 148.718 51.44 148.32C51.6418 148.078 51.892 147.881 52.1744 147.741C52.4568 147.602 52.7653 147.523 53.08 147.51C53.4163 147.509 53.7495 147.574 54.0602 147.703C54.3709 147.832 54.653 148.021 54.89 148.26C55.5668 148.864 56.0299 149.671 56.21 150.56L55.06 150.86C54.9031 150.195 54.5556 149.59 54.06 149.12C53.8258 148.896 53.5226 148.759 53.2 148.73C53.0349 148.716 52.8689 148.744 52.717 148.81C52.5652 148.876 52.4322 148.979 52.33 149.11C52.1744 149.286 52.0921 149.515 52.1 149.75C52.132 150.066 52.2573 150.365 52.46 150.61L53.03 151.29C53.4578 151.74 53.6944 152.339 53.69 152.96C53.6649 153.503 53.4489 154.02 53.08 154.42C52.02 155.54 50.83 155.51 49.49 154.34C48.6561 153.633 48.1232 152.636 48 151.55L49.14 151.38Z" fill="white"/>
<path d="M58.44 159L56 157.33L54.49 158.46L53.49 157.74L60.39 152.74L61.19 153.3L58.92 161.49L57.92 160.78L58.44 159ZM58.78 157.93L59.86 154.41L56.93 156.64L58.78 157.93Z" fill="white"/>
<path d="M65.23 156L67.89 157.41C68.1753 157.537 68.4321 157.721 68.6451 157.949C68.8581 158.178 69.023 158.447 69.13 158.74C69.2072 159.013 69.2284 159.3 69.1923 159.581C69.1562 159.863 69.0636 160.135 68.92 160.38C68.7707 160.676 68.5466 160.928 68.27 161.11C68.1156 161.204 67.9466 161.272 67.77 161.31C67.5507 161.362 67.325 161.382 67.1 161.37V161.37C67.3948 161.626 67.5838 161.982 67.63 162.37C67.6406 162.777 67.5477 163.179 67.36 163.54C67.2304 163.815 67.0453 164.06 66.8164 164.259C66.5875 164.459 66.3197 164.609 66.03 164.7C65.761 164.791 65.4755 164.824 65.1927 164.797C64.91 164.769 64.6363 164.682 64.39 164.54L61.49 163.02L65.23 156ZM64.23 160.49L63.1 162.62L64.7 163.47C64.848 163.561 65.0141 163.619 65.1868 163.64C65.3595 163.661 65.5346 163.644 65.7 163.59C65.9856 163.482 66.2208 163.272 66.36 163C66.4477 162.858 66.5033 162.699 66.5228 162.533C66.5423 162.368 66.5252 162.2 66.4728 162.042C66.4203 161.883 66.3338 161.738 66.2193 161.617C66.1048 161.496 65.965 161.401 65.81 161.34L64.23 160.49ZM65.8 157.49L64.73 159.49L66.23 160.28C66.3765 160.375 66.5419 160.436 66.7146 160.46C66.8873 160.484 67.0632 160.471 67.23 160.42C67.3712 160.374 67.5016 160.3 67.6133 160.202C67.725 160.104 67.8158 159.984 67.88 159.85C68.0262 159.592 68.0691 159.288 68 159C67.9413 158.839 67.8508 158.691 67.734 158.566C67.6172 158.441 67.4764 158.34 67.32 158.27L65.8 157.49Z" fill="white"/>
<path d="M70.53 163.13C70.7388 162.541 70.986 161.966 71.27 161.41C71.4068 161.175 71.5827 160.966 71.79 160.79C72.1298 160.493 72.5391 160.287 72.98 160.19C73.5095 160.062 74.0656 160.104 74.57 160.31C75.0895 160.503 75.5366 160.853 75.85 161.31C76.112 161.675 76.274 162.103 76.32 162.55C76.3798 162.817 76.3798 163.093 76.32 163.36C75.964 164.555 75.5195 165.721 74.99 166.85C74.8616 167.093 74.6806 167.305 74.46 167.47C74.1278 167.767 73.7249 167.974 73.29 168.07C72.9144 168.154 72.5256 168.159 72.148 168.085C71.7703 168.012 71.412 167.861 71.0955 167.642C70.779 167.423 70.5112 167.141 70.3089 166.814C70.1066 166.486 69.9742 166.121 69.92 165.74C69.92 165.61 69.92 165.48 69.92 165.37C69.9075 165.224 69.9075 165.076 69.92 164.93C70.0886 164.319 70.2922 163.718 70.53 163.13V163.13ZM71.63 163.55C71.4224 164.045 71.2584 164.557 71.14 165.08C71.0683 165.321 71.0683 165.578 71.14 165.82C71.2013 166.026 71.311 166.215 71.46 166.37C71.6148 166.565 71.8233 166.711 72.06 166.79C72.2973 166.887 72.5564 166.918 72.81 166.88C73.0168 166.862 73.2161 166.793 73.39 166.68C73.6085 166.555 73.7911 166.376 73.92 166.16C74.1727 165.687 74.3899 165.195 74.57 164.69C74.7765 164.19 74.9437 163.676 75.07 163.15C75.1123 162.905 75.0917 162.654 75.01 162.42C74.9562 162.214 74.8571 162.023 74.72 161.86C74.5454 161.678 74.3341 161.534 74.1 161.44C73.8669 161.354 73.617 161.323 73.37 161.35C73.154 161.376 72.9461 161.447 72.76 161.56C72.5469 161.684 72.3681 161.859 72.24 162.07C71.9996 162.547 71.7956 163.042 71.63 163.55V163.55Z" fill="white"/>
<path d="M79.57 162.12L82.57 162.84C83.1322 162.95 83.6342 163.263 83.98 163.72C84.1739 163.982 84.3052 164.285 84.3642 164.606C84.4231 164.926 84.408 165.256 84.32 165.57C84.2281 166.047 83.9831 166.481 83.6221 166.806C83.2611 167.131 82.8039 167.329 82.32 167.37L83.22 171.25L81.87 170.92L81.12 167.21L79.66 166.85L78.84 170.18L77.7 169.9L79.57 162.12ZM79.88 165.81L81.61 166.23C81.7755 166.283 81.9502 166.3 82.1228 166.281C82.2954 166.262 82.462 166.206 82.6119 166.119C82.7618 166.031 82.8916 165.913 82.9929 165.772C83.0942 165.631 83.1648 165.47 83.2 165.3C83.2634 165.133 83.2811 164.953 83.2512 164.777C83.2213 164.601 83.145 164.437 83.03 164.3C82.8325 164.061 82.5556 163.902 82.25 163.85L80.46 163.41L79.88 165.81Z" fill="white"/>
<path d="M87.2 163.8L92.12 164.39L91.98 165.53L88.23 165.08L87.95 167.35L91.16 167.74L91.03 168.81L87.82 168.42L87.54 170.76L91.3 171.21L91.16 172.35L86.24 171.76L87.2 163.8Z" fill="white"/>
<path d="M94.47 170.59C95.0804 171.118 95.8626 171.406 96.67 171.4C97.67 171.4 98.19 171.02 98.21 170.29C98.23 169.56 97.88 169.29 97.21 169.21L96.21 169.05C95.6278 168.982 95.0888 168.709 94.69 168.28C94.332 167.872 94.1425 167.343 94.16 166.8C94.1467 166.486 94.2005 166.173 94.3178 165.882C94.435 165.59 94.6131 165.327 94.84 165.11C95.3502 164.657 96.0186 164.423 96.7 164.46C97.6039 164.47 98.4818 164.764 99.21 165.3L98.55 166.3C97.9832 165.912 97.3164 165.697 96.63 165.68C96.3067 165.666 95.9886 165.765 95.73 165.96C95.5959 166.06 95.489 166.192 95.4191 166.344C95.3492 166.496 95.3186 166.663 95.33 166.83C95.3323 167.063 95.4256 167.285 95.59 167.45C95.8193 167.671 96.1141 167.811 96.43 167.85L97.3 167.98C97.9227 168.034 98.5 168.328 98.91 168.8C99.2485 169.226 99.4287 169.756 99.42 170.3C99.42 171.83 98.47 172.6 96.69 172.62C95.5855 172.643 94.5133 172.247 93.69 171.51L94.47 170.59Z" fill="white"/>
<path d="M108.72 167.11L111.43 166.63L111.72 168.23C111.854 168.97 111.696 169.733 111.28 170.36C111.076 170.664 110.812 170.924 110.504 171.123C110.196 171.323 109.851 171.458 109.49 171.52C108.956 171.62 108.405 171.554 107.91 171.33C107.491 171.159 107.125 170.88 106.85 170.52C106.77 170.42 106.7 170.31 106.63 170.21C106.559 170.082 106.499 169.948 106.45 169.81C106.277 169.213 106.143 168.605 106.05 167.99C105.925 167.38 105.841 166.762 105.8 166.14C105.792 165.868 105.833 165.597 105.92 165.34C106.062 164.909 106.309 164.52 106.64 164.21C107.084 163.796 107.651 163.537 108.255 163.472C108.859 163.407 109.468 163.54 109.99 163.85C110.529 164.218 110.939 164.746 111.16 165.36L109.94 165.58C109.789 165.282 109.561 165.03 109.28 164.85C109.017 164.71 108.719 164.647 108.421 164.67C108.124 164.693 107.839 164.801 107.6 164.98C107.431 165.113 107.291 165.28 107.19 165.47C107.066 165.686 107.004 165.931 107.01 166.18C107.03 166.721 107.097 167.26 107.21 167.79C107.287 168.319 107.407 168.841 107.57 169.35C107.649 169.589 107.795 169.8 107.99 169.96C108.165 170.111 108.372 170.223 108.594 170.287C108.817 170.351 109.051 170.365 109.28 170.33C109.485 170.293 109.68 170.213 109.852 170.096C110.024 169.979 110.17 169.827 110.28 169.65C110.525 169.271 110.611 168.812 110.52 168.37L110.45 167.96L108.89 168.24L108.72 167.11Z" fill="white"/>
<path d="M114.2 166.38C114.003 165.788 113.846 165.183 113.73 164.57C113.684 164.302 113.684 164.028 113.73 163.76C113.825 163.317 114.024 162.902 114.31 162.55C114.652 162.129 115.117 161.825 115.64 161.68C116.112 161.52 116.621 161.497 117.105 161.614C117.59 161.731 118.032 161.983 118.38 162.34C118.583 162.522 118.746 162.743 118.86 162.99C119.1 163.568 119.307 164.159 119.48 164.76C119.676 165.347 119.836 165.944 119.96 166.55C120.017 166.821 120.017 167.1 119.96 167.37C119.883 167.811 119.694 168.224 119.41 168.57C119.064 168.996 118.596 169.306 118.07 169.46C117.594 169.606 117.088 169.622 116.605 169.506C116.121 169.39 115.677 169.146 115.32 168.8L115.07 168.51C114.982 168.391 114.904 168.264 114.84 168.13C114.589 167.561 114.376 166.977 114.2 166.38V166.38ZM115.33 166.04C115.469 166.555 115.653 167.057 115.88 167.54C115.985 167.771 116.156 167.965 116.37 168.1C116.543 168.222 116.741 168.304 116.95 168.34C117.192 168.41 117.448 168.41 117.69 168.34C117.914 168.273 118.121 168.157 118.294 167.999C118.467 167.842 118.602 167.647 118.69 167.43C118.786 167.196 118.821 166.941 118.79 166.69C118.7 166.16 118.566 165.638 118.39 165.13C118.248 164.61 118.064 164.101 117.84 163.61C117.726 163.391 117.557 163.205 117.35 163.07C117.183 162.94 116.988 162.851 116.78 162.81C116.529 162.773 116.274 162.79 116.03 162.86C115.794 162.937 115.578 163.067 115.4 163.24C115.246 163.389 115.127 163.57 115.05 163.77C114.949 163.999 114.914 164.252 114.95 164.5C115.036 165.01 115.163 165.511 115.33 166V166.04Z" fill="white"/>
<path d="M120.56 160.1L121.63 159.62L123.75 164.34C123.833 164.553 123.958 164.747 124.118 164.91C124.278 165.073 124.469 165.202 124.68 165.29C124.871 165.374 125.077 165.417 125.285 165.417C125.493 165.417 125.699 165.374 125.89 165.29C126.085 165.21 126.261 165.09 126.407 164.939C126.553 164.787 126.666 164.607 126.74 164.41C126.814 164.195 126.843 163.967 126.826 163.74C126.808 163.513 126.745 163.292 126.64 163.09L124.52 158.37L125.6 157.89L127.76 162.73C127.923 163.062 128.016 163.425 128.033 163.795C128.051 164.165 127.992 164.534 127.86 164.88C127.58 165.55 127.054 166.089 126.391 166.386C125.728 166.683 124.977 166.717 124.29 166.48C123.939 166.357 123.619 166.16 123.35 165.903C123.081 165.646 122.869 165.335 122.73 164.99L120.56 160.1Z" fill="white"/>
<path d="M127.94 156.61L130.53 155.04C131.011 154.723 131.59 154.592 132.16 154.67C132.481 154.72 132.786 154.842 133.054 155.025C133.322 155.209 133.546 155.449 133.71 155.73C133.979 156.131 134.112 156.609 134.088 157.091C134.065 157.574 133.887 158.036 133.58 158.41L136.95 160.52L135.76 161.24L132.61 159.15L131.32 159.93L133.1 162.85L132.1 163.46L127.94 156.61ZM130.77 159.01L132.29 158.08C132.453 157.994 132.594 157.873 132.705 157.726C132.816 157.579 132.892 157.41 132.93 157.23C132.964 157.073 132.967 156.911 132.938 156.753C132.908 156.595 132.848 156.444 132.76 156.31C132.68 156.156 132.565 156.024 132.424 155.923C132.284 155.822 132.121 155.756 131.95 155.73C131.641 155.705 131.333 155.79 131.08 155.97L129.51 156.92L130.77 159.01Z" fill="white"/>
<path d="M134.54 152.48L135.4 151.78L140.4 154.44L138.83 149L139.69 148.31L144.69 154.53L143.78 155.27L140.63 151.39L141.79 155.39L141.03 156L137.35 154L140.5 158L139.58 158.74L134.54 152.48Z" fill="white"/>
<path d="M141.72 146.35L145.12 142.75L145.95 143.53L143.35 146.28L145.02 147.86L147.24 145.51L148.02 146.25L145.8 148.6L147.51 150.22L150.11 147.47L150.94 148.26L147.53 151.86L141.72 146.35Z" fill="white"/>
<path d="M148.22 140.58L146.94 142.28L146.08 141.63L149.36 137.3L150.22 137.95L148.93 139.65L154.46 143.83L153.76 144.77L148.22 140.58Z" fill="white"/>
<path fill-rule="evenodd" clip-rule="evenodd" d="M97 96.6299L156.67 80.6299C158.071 85.8478 158.78 91.2272 158.78 96.6299H97Z" fill="#C381B3"/>
<path fill-rule="evenodd" clip-rule="evenodd" d="M97 96.6299L156.67 80.6299C158.071 85.8478 158.78 91.2272 158.78 96.6299H97Z" fill="#C381B3"/>
<path fill-rule="evenodd" clip-rule="evenodd" d="M97 96.6299L156.67 80.6299C158.071 85.8478 158.78 91.2272 158.78 96.6299H97Z" fill="#C381B3"/>
<path fill-rule="evenodd" clip-rule="evenodd" d="M97 96.6299L156.67 80.6299C158.071 85.8478 158.78 91.2272 158.78 96.6299H97Z" fill="#C381B3"/>
<path fill-rule="evenodd" clip-rule="evenodd" d="M97 96.6299L156.67 80.6299C158.071 85.8478 158.78 91.2272 158.78 96.6299H97Z" fill="#B84581"/>
<path fill-rule="evenodd" clip-rule="evenodd" d="M97 96.6302L150.5 65.7402C153.201 70.4151 155.275 75.4247 156.67 80.6402L97 96.6302Z" fill="#C381B3"/>
<path fill-rule="evenodd" clip-rule="evenodd" d="M97 96.63L140.67 53C144.489 56.8185 147.791 61.1219 150.49 65.8L97 96.63Z" fill="#B84581"/>
<path fill-rule="evenodd" clip-rule="evenodd" d="M97 96.6299L127.89 43.1299C132.566 45.8427 136.863 49.1614 140.67 52.9999L97 96.6299Z" fill="#C381B3"/>
<path fill-rule="evenodd" clip-rule="evenodd" d="M97 96.64L113 37C118.215 38.4011 123.224 40.4787 127.9 43.18L97 96.64Z" fill="#B84581"/>
<path fill-rule="evenodd" clip-rule="evenodd" d="M97 96.6399V34.8599C102.404 34.8694 107.783 35.5889 113 36.9999L97 96.6399Z" fill="#C381B3"/>
<path fill-rule="evenodd" clip-rule="evenodd" d="M97 96.6399L81 36.9999C86.2184 35.6024 91.5977 34.8963 97 34.8999V96.6399Z" fill="#B84581"/>
<path fill-rule="evenodd" clip-rule="evenodd" d="M97 96.64L66.1 43.14C70.7784 40.4538 75.7873 38.3897 81 37L97 96.64Z" fill="#C381B3"/>
<path fill-rule="evenodd" clip-rule="evenodd" d="M97 96.6499L53.31 52.9999C57.1299 49.1891 61.4293 45.8914 66.1 43.1899L97 96.6499Z" fill="#B84581"/>
<path fill-rule="evenodd" clip-rule="evenodd" d="M97 96.65L43.5 65.76C46.1921 61.092 49.4908 56.8014 53.31 53L97 96.65Z" fill="#C381B3"/>
<path fill-rule="evenodd" clip-rule="evenodd" d="M97 96.65L37.33 80.65C38.725 75.4345 40.7994 70.4249 43.5 65.75L97 96.65Z" fill="#B84581"/>
<path fill-rule="evenodd" clip-rule="evenodd" d="M97 96.6499H35.22C35.2198 91.2472 35.9292 85.8679 37.33 80.6499L97 96.6499Z" fill="#C381B3"/>
<path fill-rule="evenodd" clip-rule="evenodd" d="M97 96.6499L37.33 112.65C35.9318 107.432 35.2257 102.052 35.23 96.6499H97Z" fill="#B84581"/>
<path fill-rule="evenodd" clip-rule="evenodd" d="M97 96.6499L43.5 127.54C40.7969 122.865 38.7192 117.856 37.32 112.64L97 96.6499Z" fill="#C381B3"/>
<path fill-rule="evenodd" clip-rule="evenodd" d="M97 96.6499L53.33 140.33C49.5107 136.515 46.2092 132.215 43.51 127.54L97 96.6499Z" fill="#B84581"/>
<path fill-rule="evenodd" clip-rule="evenodd" d="M97 96.6499L66.11 150.15C61.4368 147.448 57.137 144.147 53.32 140.33L97 96.6499Z" fill="#C381B3"/>
<path fill-rule="evenodd" clip-rule="evenodd" d="M97 96.6499L81 156.32C75.7847 154.924 70.7752 152.85 66.1 150.15L97 96.6499Z" fill="#B84581"/>
<path fill-rule="evenodd" clip-rule="evenodd" d="M97 96.6499V158.42C91.598 158.419 86.2192 157.713 81 156.32L97 96.6499Z" fill="#C381B3"/>
<path fill-rule="evenodd" clip-rule="evenodd" d="M97 96.6401L113 156.31C107.782 157.711 102.403 158.42 97 158.42V96.6401Z" fill="#B84581"/>
<path fill-rule="evenodd" clip-rule="evenodd" d="M97 96.6401L127.89 150.14C123.215 152.84 118.205 154.914 112.99 156.31L97 96.6401Z" fill="#C381B3"/>
<path fill-rule="evenodd" clip-rule="evenodd" d="M97 96.6299L140.68 140.31C136.862 144.129 132.558 147.431 127.88 150.13L97 96.6299Z" fill="#B84581"/>
<path fill-rule="evenodd" clip-rule="evenodd" d="M97 96.6201L150.49 127.51C147.798 132.19 144.499 136.494 140.68 140.31L97 96.6201Z" fill="#C381B3"/>
<path fill-rule="evenodd" clip-rule="evenodd" d="M97 96.6201L156.67 112.62C155.275 117.836 153.201 122.845 150.5 127.52L97 96.6201Z" fill="#B84581"/>
<path fill-rule="evenodd" clip-rule="evenodd" d="M97 96.6099H158.8C158.8 102.013 158.091 107.392 156.69 112.61L97 96.6099Z" fill="#C381B3"/>
<path d="M159.07 44.38C158.62 40.38 154.76 37.55 150.45 38.04C148.895 38.1858 147.418 38.7929 146.21 39.7836C145.002 40.7742 144.118 42.1032 143.67 43.6C142.437 42.969 141.047 42.7118 139.67 42.86C138.095 42.9946 136.621 43.6925 135.519 44.8258C134.417 45.9591 133.76 47.4518 133.67 49.03H133.61C132.817 49.0639 132.039 49.2606 131.325 49.6079C130.61 49.9552 129.975 50.4457 129.459 51.0489C128.942 51.6521 128.556 52.355 128.322 53.1141C128.089 53.8732 128.014 54.6721 128.103 55.4613C128.192 56.2504 128.442 57.0129 128.838 57.7013C129.234 58.3896 129.767 58.9892 130.404 59.4627C131.042 59.9363 131.77 60.2736 132.543 60.4537C133.317 60.6339 134.119 60.6531 134.9 60.51C135.193 60.4697 135.483 60.4129 135.77 60.34L137.15 73L141.15 72.55L139.93 61.72H140.33L141.55 72.56L145.78 72.08L144.56 61.25H144.95L146.17 72L150.4 71.52L149.18 60.7H149.58L150.8 71.53L157.8 70.75L156.28 57.22C157.432 57.6765 158.68 57.8381 159.91 57.69C160.796 57.6565 161.667 57.446 162.471 57.0709C163.275 56.6957 163.996 56.1635 164.591 55.5056C165.186 54.8477 165.644 54.0773 165.936 53.2399C166.229 52.4025 166.352 51.515 166.296 50.6296C166.241 49.7442 166.009 48.8788 165.614 48.0844C165.219 47.2901 164.669 46.5827 163.997 46.0041C163.324 45.4254 162.543 44.9872 161.698 44.7151C160.854 44.4431 159.964 44.3427 159.08 44.42L159.07 44.38Z" fill="white"/>
<path d="M189.11 77.3198C186.86 64.0398 178.45 61.2598 171.79 61.2598C170.114 61.2694 168.441 61.4199 166.79 61.7098C165.206 61.9905 163.638 62.351 162.09 62.7898C160.853 63.134 159.785 63.9204 159.09 64.9998C157.209 64.0395 155.122 63.5522 153.01 63.5798C152.085 63.5823 151.162 63.6626 150.25 63.8198C148.085 64.127 146.03 64.9679 144.27 66.2666C142.511 67.5653 141.102 69.2812 140.17 71.2598C137.178 69.2507 133.633 68.2263 130.03 68.3298C128.354 68.3402 126.682 68.4874 125.03 68.7698C123.69 68.9998 122.15 69.3598 120.33 69.8598C119.349 70.1334 118.469 70.6882 117.799 71.4558C117.129 72.2234 116.698 73.1703 116.56 74.1798C116.269 73.4769 115.829 72.8457 115.27 72.3298C114.684 71.7857 113.98 71.3843 113.213 71.1571C112.447 70.9298 111.638 70.8828 110.85 71.0198C106.01 71.8398 104.03 72.0198 104.02 72.0198C103.252 72.0904 102.508 72.3295 101.843 72.7202C101.177 73.1108 100.606 73.6433 100.17 74.2798C99.3251 74.0143 98.4257 73.9729 97.56 74.1598C94.81 74.7498 93.05 75.1598 91.94 75.3298C91.3566 74.8787 90.6842 74.5563 89.9672 74.384C89.2501 74.2116 88.5047 74.1931 87.78 74.3298C84.11 74.9998 81.78 75.2498 81.78 75.2498C81.039 75.3271 80.3231 75.5615 79.6799 75.9375C79.0367 76.3134 78.481 76.8221 78.05 77.4298C77.94 77.5898 77.84 77.7498 77.74 77.9098C77.2293 77.8586 76.7139 77.8822 76.21 77.9798C73.5 78.5098 71.4 78.9798 70.21 79.2598C69.6219 78.7415 68.9244 78.3626 68.1695 78.1514C67.4145 77.9402 66.6217 77.902 65.85 78.0398C62.18 78.7098 59.85 78.9598 59.85 78.9598C59.1094 79.0383 58.3939 79.2733 57.7509 79.6491C57.1078 80.0249 56.552 80.533 56.12 81.1398C56.0106 81.2971 55.9104 81.4607 55.82 81.6298C55.3093 81.5783 54.7939 81.6019 54.29 81.6998C51.51 82.2398 49.38 82.6998 48.21 82.9898C47.5545 82.3692 46.7491 81.9295 45.8726 81.7139C44.9961 81.4983 44.0786 81.5141 43.21 81.7598C39.27 82.9198 36.77 83.3998 36.75 83.3998C36.061 83.5337 35.4056 83.8033 34.8219 84.1931C34.2381 84.5828 33.7378 85.0848 33.35 85.6698C30.35 85.7998 28.78 85.8298 28.35 85.8098C28.1254 85.8182 27.9015 85.8416 27.68 85.8798C26.7948 85.5393 25.833 85.4493 24.9 85.6198C17.07 87.0998 10.39 88.2898 10.33 88.2998C9.64828 88.4202 8.99717 88.6745 8.41429 89.048C7.83141 89.4214 7.32831 89.9067 6.93407 90.4758C6.53982 91.0448 6.26225 91.6864 6.11737 92.3633C5.9725 93.0403 5.9632 93.7392 6.09001 94.4198C9.92001 114.87 12.5 129.74 12.52 129.89C12.639 130.582 12.896 131.243 13.2756 131.834C13.6553 132.425 14.1499 132.934 14.73 133.33C15.6156 133.928 16.6612 134.245 17.73 134.24C18.0861 134.238 18.4412 134.201 18.79 134.13C18.79 134.13 21.6 133.55 25.48 132.94C26.1723 132.832 26.836 132.587 27.4317 132.219C28.0273 131.85 28.5429 131.365 28.9477 130.794C29.3525 130.222 29.6383 129.574 29.7881 128.89C29.938 128.206 29.9488 127.498 29.82 126.81L29 122.65C31.41 127.23 35.18 130.91 41.25 130.91C42.1249 130.906 42.9979 130.829 43.86 130.68C46.9056 130.256 49.7073 128.781 51.78 126.51C52.5762 126.982 53.484 127.234 54.41 127.24C54.7018 127.238 54.9928 127.211 55.28 127.16C58.99 126.53 61.72 126.16 61.75 126.16C62.4865 126.057 63.1943 125.805 63.83 125.42C64.4642 125.995 65.2297 126.406 66.0595 126.617C66.8893 126.828 67.7581 126.832 68.59 126.63C73.1 125.54 75.31 124.83 75.4 124.8C76.2519 124.525 77.0172 124.032 77.62 123.37C81.11 122.79 83.62 122.45 83.62 122.45C84.3591 122.352 85.0685 122.096 85.7 121.7C86.3323 122.278 87.0973 122.692 87.9275 122.905C88.7576 123.118 89.6274 123.123 90.46 122.92C94.97 121.83 97.18 121.12 97.27 121.09C98.5482 120.69 99.6228 119.812 100.27 118.64C100.473 118.873 100.698 119.087 100.94 119.28C101.854 119.967 102.966 120.339 104.11 120.34C104.446 120.341 104.781 120.307 105.11 120.24C110.17 119.24 111.69 119.07 111.71 119.06C112.44 118.987 113.146 118.761 113.784 118.398C114.421 118.034 114.975 117.541 115.409 116.95C115.844 116.359 116.149 115.683 116.306 114.967C116.463 114.25 116.468 113.508 116.32 112.79C115.32 108.11 115.01 106.16 114.9 105.45C115.84 90.6298 116.65 80.4498 116.9 77.5098C120.49 97.8998 122.48 110.83 122.5 110.96C122.693 112.196 123.321 113.322 124.27 114.136C125.22 114.95 126.429 115.398 127.68 115.4C128.036 115.398 128.391 115.361 128.74 115.29C132.68 114.47 135.54 114.08 135.57 114.08C136.275 113.984 136.954 113.745 137.564 113.378C138.174 113.011 138.702 112.523 139.117 111.944C139.531 111.366 139.824 110.709 139.976 110.013C140.127 109.318 140.136 108.599 140 107.9L139.24 104C140.365 103.419 141.416 102.703 142.37 101.87C144.67 107.06 148.59 111.64 155.57 111.64C156.488 111.638 157.405 111.557 158.31 111.4C161.372 111.016 164.213 109.606 166.37 107.4C167.253 108.007 168.299 108.331 169.37 108.33C169.726 108.328 170.081 108.291 170.43 108.22C174.37 107.4 177.24 107.02 177.27 107.01C177.976 106.913 178.655 106.673 179.265 106.305C179.876 105.936 180.405 105.448 180.82 104.869C181.235 104.29 181.529 103.632 181.682 102.936C181.835 102.24 181.844 101.52 181.71 100.82L180.95 96.9198C187.59 93.5098 190.64 86.3998 189.11 77.3198Z" fill="white" stroke="#1F120D" stroke-width="2" stroke-linecap="round" stroke-linejoin="round"/>
<path d="M11.26 93.3702C11.26 93.3702 17.94 92.1902 25.89 90.6802C25.89 90.6802 26.24 93.0602 27.01 97.5902C27.01 97.5902 24.38 97.9802 19.41 98.9802C19.41 98.9802 19.98 102.38 21.16 108.98C21.88 108.86 24.21 108.51 27.99 107.72C27.99 107.72 28.46 110.49 29.19 114.5C29.19 114.5 26.91 114.78 22.4 115.65L24.64 127.65C20.57 128.29 17.7 128.88 17.7 128.88C17.7 128.88 15.14 114.1 11.26 93.3702Z" fill="#1F120D"/>
<path d="M30 107.35C29.0615 101.946 28.5001 96.4823 28.32 90.9999C28.32 90.9999 30.39 90.9999 35.22 90.7799C35.4392 95.4179 35.9032 100.041 36.61 104.63C38.52 115.9 40.3 118.93 41.8 118.63C43.3 118.33 43.89 116.63 42.14 106.29C41.0625 100.254 39.5927 94.2947 37.74 88.4499C37.74 88.4499 40.41 87.9499 44.74 86.6899C46.7446 92.567 48.3155 98.5831 49.44 104.69C51.71 118.13 50 124.24 43.05 125.42C35.8 126.7 32.23 120.63 30 107.35Z" fill="#1F120D"/>
<path d="M48.56 88.2198C48.56 88.2198 51.25 87.5498 55.35 86.7498C55.35 86.7498 59.67 96.0298 65.61 107.62C64.61 102.55 62.85 94.1598 60.46 84.0898C60.46 84.0898 62.9 83.8298 66.85 83.0898C66.85 83.0898 69.41 96.8999 73.85 119.77C73.85 119.77 71.79 120.43 67.42 121.49C67.42 121.49 63.42 113.54 56.97 100.76C57.8 105.38 59.26 112.71 61.12 120.92C61.12 120.92 58.33 121.28 54.47 121.92C54.43 122 52.4 109.06 48.56 88.2198Z" fill="#1F120D"/>
<path d="M70.48 84.5101C70.48 84.5101 73.17 83.8401 77.27 83.0401C77.27 83.0401 81.59 92.3101 87.53 103.91C86.53 98.8401 84.77 90.4501 82.38 80.3701C82.38 80.3701 84.82 80.1201 88.78 79.3701C88.78 79.3701 91.33 93.1801 95.73 116.04C95.73 116.04 93.67 116.71 89.3 117.77C89.3 117.77 85.3 109.77 78.85 97.0401C79.69 101.66 81.14 108.98 83.01 117.19C83.01 117.19 80.21 117.56 76.35 118.19C76.35 118.24 74.33 105.35 70.48 84.5101Z" fill="#1F120D"/>
<path d="M102.7 106.9C102.7 106.9 99.86 99.8099 91.18 80.7899C91.18 80.7899 92.52 80.5599 98.7 79.2499C98.7 79.2499 101.05 86.5299 104.62 96.3499C104.62 96.3499 104.69 88.0299 104.55 77.1999C104.55 77.1999 106.55 77.0199 111.78 76.1299C111.78 76.1299 110.83 87.3599 109.68 105.61C109.68 105.61 109.76 106.71 111.23 113.82C111.23 113.82 109.72 113.97 104.14 115.07C104.14 115.07 104 113.35 102.7 106.9Z" fill="#1F120D"/>
<path d="M121.78 74.87C123.156 74.4666 124.551 74.1329 125.96 73.87C135.89 72.19 140.7 76.19 142.23 85.2C143.65 93.59 140.23 99.09 133.28 100.53L134.9 108.84C134.9 108.84 131.9 109.24 127.7 110.11C127.7 110.13 125.62 96.56 121.78 74.87ZM132.23 95C134.76 94.31 136.07 92.34 135.11 86.68C134.24 81.53 132.39 79.09 129.59 79.68C130.38 84.37 130.83 87.31 132.23 95Z" fill="#1F120D"/>
<path d="M144.38 89.1998C142.63 78.8498 143.19 70.2898 151.17 68.9398C159.15 67.5898 162.43 74.8098 164.29 85.7698C166.6 100.05 164.17 105.06 157.48 106.2C150.07 107.45 146.52 101.54 144.38 89.1998ZM156.63 86.8098C154.96 76.9798 153.76 74.2698 152.12 74.5498C150.32 74.8498 150.37 78.2798 151.94 87.5498C153.79 98.4598 154.86 101.03 156.66 100.72C158.2 100.46 158.53 97.9998 156.63 86.8098Z" fill="#1F120D"/>
<path d="M163.52 67.8001C164.896 67.3967 166.291 67.063 167.7 66.8001C177.63 65.1201 182.44 69.1301 183.96 78.1301C185.38 86.5201 181.96 92.0201 175.02 93.4701L176.64 101.77C176.64 101.77 173.64 102.17 169.44 103.04C169.44 103.06 167.35 89.4901 163.52 67.8001ZM174 87.8901C176.53 87.2001 177.83 85.2301 176.87 79.5701C176 74.4201 174.16 71.9801 171.36 72.6201C172.12 77.3001 172.56 80.2401 174 87.8901Z" fill="#1F120D"/>
</svg>
