<svg width="158" height="86" viewBox="0 0 158 86" fill="none" xmlns="http://www.w3.org/2000/svg">
<path d="M133.6 9.84049L133.58 10.314L134.052 10.3592C135.307 10.4795 136.471 11.0695 137.309 12.0112C138.145 12.9491 138.597 14.1668 138.575 15.4223C138.464 16.749 137.833 17.9781 136.819 18.8413C135.801 19.7077 134.481 20.1344 133.148 20.0275L133.138 20.0266L133.128 20.0262C132.221 19.9915 131.337 19.7343 130.554 19.2773L129.837 18.8595L129.802 19.6882L129.365 30.0738L124.728 29.8806L125.072 21.6608L125.091 21.2144L124.649 21.1458L124.341 21.0979L123.788 21.0121L123.764 21.571L123.419 29.7981L121.013 29.6938L121.358 21.4731L121.376 21.0266L120.935 20.9581L120.618 20.909L120.065 20.8231L120.042 21.3825L119.704 29.6103L117.291 29.505L117.635 21.2841L117.654 20.8377L117.212 20.7692L116.903 20.7212L116.351 20.6354L116.327 21.1944L115.982 29.4222L113.76 29.3288L114.163 19.586L114.187 19.0101L113.613 19.0679C113.404 19.089 113.193 19.0953 112.983 19.0868L112.973 19.0864L112.964 19.0864C111.824 19.0848 110.732 18.6316 109.926 17.8261C109.125 17.0255 108.672 15.9419 108.665 14.8102C108.715 14.2516 108.873 13.7079 109.131 13.2099C109.393 12.7055 109.751 12.2579 110.187 11.8929C110.622 11.5279 111.125 11.2526 111.667 11.083C112.205 10.9149 112.77 10.8538 113.331 10.9032L113.362 10.9082L113.827 10.9804L113.927 10.5203C114.171 9.40233 114.808 8.409 115.722 7.72157C116.637 7.03414 117.768 6.69842 118.909 6.77567L118.909 6.77583L118.922 6.77637C119.932 6.81894 120.907 7.16031 121.722 7.75723L122.21 8.1142L122.469 7.56813C122.963 6.52711 123.757 5.65762 124.75 5.07138C125.742 4.48513 126.886 4.20893 128.037 4.27824L128.037 4.27831L128.045 4.27868C131.276 4.41804 133.722 6.9317 133.6 9.84049Z" fill="white" stroke="#1A202C"/>
<path d="M153.823 39.6171C153.674 28.8324 147.362 25.5916 142.1 24.7747C140.772 24.5804 139.431 24.494 138.089 24.5166C137 24.534 135.745 24.6309 134.236 24.8017C133.215 24.9229 132.274 25.4139 131.59 26.182C130.219 25.186 128.624 24.5431 126.946 24.3102C126.216 24.2003 125.479 24.1482 124.742 24.1544C122.991 24.1337 121.262 24.5475 119.711 25.3589C118.159 26.1702 116.833 27.3537 115.851 28.8033C113.728 26.8491 111.05 25.6036 108.188 25.2392C106.86 25.0409 105.518 24.9546 104.176 24.9811C102.888 25.0118 101.602 25.107 100.323 25.2662C99.5133 25.3632 98.7493 25.6944 98.1251 26.2194C97.5009 26.7444 97.0436 27.4402 96.8093 28.2215C96.5928 27.2961 96.0657 26.4729 95.3158 25.889C94.5659 25.3051 93.6386 24.9959 92.6884 25.0129C88.7499 25.066 87.161 24.9652 87.1531 24.9639C86.5383 24.9243 85.9223 25.021 85.3492 25.2473C84.7761 25.4735 84.2602 25.8237 83.8382 26.2726C83.1999 25.965 82.4939 25.8248 81.7865 25.865L77.2328 26.1224C76.8268 25.6913 76.3332 25.352 75.7853 25.1271C75.2375 24.9023 74.6478 24.7972 74.056 24.8188C71.0697 24.8981 69.1953 24.8097 69.1953 24.8097C68.5993 24.7784 68.0035 24.8752 67.4482 25.0937C66.8928 25.3123 66.3908 25.6474 65.976 26.0765C65.8706 26.1849 65.7716 26.2995 65.6797 26.4195C65.2819 26.3161 64.8711 26.2714 64.4604 26.287C62.2509 26.3734 60.5236 26.4861 59.5554 26.5627C59.1549 26.079 58.6497 25.6926 58.078 25.4326C57.5064 25.1726 56.8831 25.0458 56.2553 25.0618C53.269 25.1411 51.3946 25.0527 51.3946 25.0527C50.7988 25.0229 50.2034 25.1204 49.6483 25.3389C49.0932 25.5573 48.591 25.8916 48.1753 26.3195C48.0712 26.433 47.9725 26.5473 47.879 26.6625C47.4785 26.5586 47.0652 26.5136 46.6518 26.5287C44.3924 26.6236 42.6437 26.7168 41.689 26.8117C41.2466 26.2401 40.6632 25.7933 39.9961 25.515C39.3291 25.2367 38.6011 25.1365 37.8837 25.2242C34.5772 25.6428 32.5875 25.7229 32.5705 25.7284C32.0079 25.7442 31.4544 25.8747 30.9438 26.1117C30.4333 26.3487 29.9765 26.6874 29.6013 27.1069C27.2115 26.8413 25.9575 26.6709 25.6289 26.5956C25.4469 26.5673 25.2728 26.5403 25.0901 26.5687C24.4262 26.1961 23.6742 26.0094 22.9132 26.0281C16.5435 26.2386 11.1128 26.3517 11.0549 26.3589C10.5009 26.3704 9.95473 26.4917 9.44796 26.7158C8.9412 26.94 8.48394 27.2624 8.10269 27.6645C7.72144 28.0666 7.42377 28.5403 7.22693 29.0583C7.0301 29.5763 6.938 30.1282 6.95599 30.682C7.43315 47.2873 7.64009 59.3694 7.6454 59.4918C7.66377 60.4792 8.02983 61.4285 8.67916 62.1726C9.32848 62.9167 10.2195 63.4079 11.1953 63.5598C11.4766 63.6046 11.7617 63.6217 12.0463 63.6109C12.0463 63.6109 14.3332 63.4959 17.4862 63.4911C18.0466 63.489 18.6008 63.375 19.1165 63.1557C19.6321 62.9364 20.0987 62.6162 20.4888 62.2139C20.8789 61.8117 21.1847 61.3355 21.3881 60.8134C21.5915 60.2913 21.6885 59.7338 21.6734 59.1737L21.5702 55.819C22.9079 59.73 25.4329 63.1446 30.2439 63.8914C30.9367 63.9955 31.6369 64.0419 32.3374 64.0301C34.7982 64.0617 37.1939 63.2394 39.1166 61.7033C39.8752 62.3229 40.8269 62.657 41.8063 62.6476C44.8114 62.6036 47.025 62.6474 47.0408 62.6499C47.64 62.6622 48.2351 62.5474 48.7867 62.3132C49.2155 62.8491 49.7699 63.271 50.4008 63.5414C51.0317 63.8118 51.7195 63.9223 52.4034 63.8633C56.106 63.5548 57.934 63.2632 58.0089 63.2505C58.7175 63.1325 59.3849 62.8375 59.9491 62.3929C62.7832 62.3548 64.8099 62.402 64.8111 62.3941C65.4071 62.4112 65.9997 62.2986 66.5479 62.064C66.9841 62.6019 67.5457 63.0244 68.1835 63.2944C68.8212 63.5644 69.5155 63.6736 70.2053 63.6124C73.9091 63.296 75.7359 63.0123 75.8187 63.0009C76.8773 62.836 77.8336 62.2747 78.4936 61.4308C78.6217 61.6411 78.7736 61.836 78.9463 62.0116C79.5797 62.6713 80.4119 63.105 81.3154 63.2464C81.5811 63.2879 81.8503 63.3026 82.1189 63.2901C86.2457 63.1204 87.4626 63.1635 87.4864 63.1672C88.0729 63.199 88.6596 63.1072 89.2085 62.8979C89.7574 62.6886 90.2562 62.3664 90.6727 61.9521C91.0892 61.5378 91.414 61.0407 91.6262 60.4929C91.8383 59.9451 91.9331 59.3589 91.9044 58.7721C91.688 54.9461 91.6835 53.3571 91.6824 52.7897C94.2389 41.1771 96.1303 33.2213 96.6972 30.9269C96.9991 47.5131 96.9915 57.9493 97.0005 58.0479C96.9966 58.617 97.1095 59.1808 97.332 59.7045C97.5545 60.2283 97.882 60.7009 98.2943 61.0931C98.917 61.6842 99.7046 62.0721 100.553 62.2054C100.835 62.2481 101.12 62.2625 101.405 62.2486C104.623 62.0838 106.942 62.1277 106.966 62.1314C107.53 62.1368 108.09 62.0285 108.611 61.813C109.133 61.5975 109.606 61.2792 110.002 60.8772C110.397 60.4751 110.708 59.9974 110.916 59.4726C111.123 58.9478 111.223 58.3867 111.209 57.8226L111.086 54.6432C112.045 54.3185 112.961 53.8814 113.817 53.341C115.007 57.7316 117.546 61.8372 123.069 62.6946C123.797 62.805 124.532 62.8541 125.267 62.8413C127.736 62.9066 130.155 62.1406 132.136 60.6663V60.6663C132.756 61.2616 133.545 61.6502 134.395 61.7786C134.677 61.8208 134.962 61.8353 135.247 61.8218C138.465 61.6569 140.776 61.6997 140.8 61.7033C141.371 61.7155 141.939 61.6106 142.468 61.3951C142.997 61.1796 143.477 60.8581 143.877 60.4504C144.278 60.0427 144.59 59.5574 144.796 59.0243C145.002 58.4912 145.096 57.9217 145.074 57.3507L145.003 54.155C150.632 52.2412 153.928 46.9832 153.823 39.6171Z" fill="white" stroke="#1F120D" stroke-width="2" stroke-linecap="round" stroke-linejoin="round"/>
<path d="M11.1217 30.4694C11.1217 30.4694 16.5616 30.3496 23.0366 30.1392C23.0366 30.1392 23.0211 32.0655 23.0673 35.7354C23.0673 35.7354 20.9371 35.7289 16.8894 35.9109C16.8894 35.9109 16.924 38.6633 17.0458 44.0387C17.6302 44.0322 19.4761 44.0432 22.5971 43.8795C22.5971 43.8795 22.6275 46.137 22.7205 49.4009C22.7205 49.4009 20.874 49.3412 17.1985 49.4756L17.5047 59.2474C14.1952 59.2684 11.8548 59.4156 11.8548 59.4156C11.8548 59.4156 11.6533 47.3506 11.1217 30.4694Z" fill="#1F120D"/>
<path d="M24.241 43.8351C24.1624 39.43 24.3914 35.0248 24.9262 30.6516C24.9262 30.6516 26.5563 30.9047 30.4052 31.3239C30.0069 35.021 29.8088 38.7368 29.8117 42.4552C29.9386 51.6076 30.9748 54.2239 32.1907 54.1695C33.4066 54.1152 34.0981 52.8449 33.9835 44.4481C33.8694 39.5397 33.4385 34.6439 32.6934 29.791C32.6934 29.791 34.8688 29.7155 38.4486 29.2583C39.3112 34.1546 39.8125 39.1077 39.9485 44.0775C40.0577 55.0667 37.9845 59.7042 32.3006 59.778C26.4534 59.8589 24.3742 54.6173 24.241 43.8351Z" fill="#1F120D"/>
<path d="M41.2693 30.9764C41.2693 30.9764 43.4801 30.7767 46.8227 30.6473C46.8227 30.6473 49.1102 38.5144 52.3776 48.4218C52.2091 44.2871 51.855 37.4333 51.1941 29.1623C51.1941 29.1623 53.1635 29.2654 56.3812 29.1572C56.3812 29.1572 56.7025 40.3981 57.376 59.0273C57.376 59.0273 55.7111 59.3118 52.0755 59.6064C52.0755 59.6064 49.8931 52.7847 46.361 41.9206C46.4503 45.6783 46.6911 51.6961 47.1696 58.3748C47.1696 58.3748 44.9086 58.3236 41.7768 58.3479C41.7707 58.3875 41.7557 47.9397 41.2693 30.9764Z" fill="#1F120D"/>
<path d="M59.0712 30.7253C59.0712 30.7253 61.2888 30.5347 64.6313 30.4054C64.6313 30.4054 66.9109 38.2712 70.1783 48.1786C70.0098 44.0439 69.6557 37.1901 68.9949 28.9191C68.9949 28.9191 70.9642 29.0223 74.1819 28.914C74.1819 28.914 74.5032 40.1549 75.2151 58.7982C75.2151 58.7982 73.5027 59.0753 69.9067 59.3761C69.9067 59.3761 67.7243 52.5544 64.1934 41.6823C64.2814 45.448 64.5313 51.4591 65.0007 58.1444C65.0007 58.1444 62.7476 58.0945 59.6159 58.1188C59.5793 58.1456 59.5564 47.6965 59.0712 30.7253Z" fill="#1F120D"/>
<path d="M81.8086 52.4478C81.8086 52.4478 80.4323 46.4887 75.9083 30.3734C75.9083 30.3734 76.9969 30.356 82.048 30.0786C82.048 30.0786 83.0132 36.1278 84.6318 44.3368C84.6318 44.3368 85.7092 37.7619 86.9288 29.1751C86.9288 29.1751 88.5347 29.2704 92.7812 29.2166C92.7812 29.2166 90.6104 37.9799 87.4982 52.2857C87.4982 52.2857 87.4263 53.1659 87.7161 58.9725C87.7161 58.9725 86.5028 58.9057 81.9444 59.0895C81.9506 59.0499 82.059 57.6729 81.8086 52.4478Z" fill="#1F120D"/>
<path d="M100.856 29.4004C102.069 29.2645 103.235 29.162 104.287 29.1226C112.35 29.0131 115.665 32.7691 115.761 40.0853C115.854 46.8986 112.472 50.8305 106.804 51.1175L107.066 57.8841C107.066 57.8841 104.642 57.84 101.212 58.0125C101.208 58.0362 101.221 47.0418 100.856 29.4004ZM106.657 46.581C108.744 46.3458 110.015 44.9467 109.95 40.3501C109.895 36.1681 108.738 34.0113 106.442 34.133C106.493 37.982 106.48 40.3624 106.657 46.581Z" fill="#1F120D"/>
<path d="M116.978 43.5239C116.856 35.1179 118.36 28.4066 124.833 28.3174C131.305 28.2282 133.028 34.3546 133.154 43.2556C133.228 54.831 130.681 58.5035 125.247 58.5837C119.23 58.6626 117.155 53.5512 116.978 43.5239ZM126.958 43.1284C126.886 35.1352 126.235 32.8544 124.895 32.8732C123.433 32.8974 123.051 35.6177 123.156 43.1378C123.278 52.0059 123.809 54.1709 125.272 54.1468C126.53 54.1314 127.091 52.2412 126.958 43.1284Z" fill="#1F120D"/>
<path d="M134.753 28.9336C135.957 28.7965 137.132 28.6952 138.175 28.6546C146.247 28.5463 149.554 32.3011 149.658 39.6185C149.751 46.4318 146.369 50.3637 140.653 50.6433L140.914 57.4179C140.914 57.4179 138.491 57.3659 135.069 57.5396C135.105 57.5694 135.118 46.575 134.753 28.9336ZM140.576 46.1258C142.663 45.8906 143.942 44.4927 143.877 39.8961C143.822 35.7141 142.665 33.5574 140.369 33.679C140.382 37.5139 140.377 39.8956 140.576 46.1258Z" fill="#1F120D"/>
</svg>
